<svg xmlns="http://www.w3.org/2000/svg" width="26.048" height="23.37" viewBox="0 0 26.048 23.37"><defs><style>.a{fill:#f26378;}</style></defs><g transform="translate(0 -26.315)"><g transform="translate(0 26.315)"><g transform="translate(0 0)"><path class="a" d="M25.632,45.091,15.676,27.846a3.063,3.063,0,0,0-5.305,0L.415,45.091a3.063,3.063,0,0,0,2.653,4.594H22.98a3.063,3.063,0,0,0,2.653-4.594Zm-1.322,2.3a1.521,1.521,0,0,1-1.331.768H3.068a1.537,1.537,0,0,1-1.331-2.305l9.956-17.245a1.537,1.537,0,0,1,2.662,0l9.956,17.245A1.521,1.521,0,0,1,24.311,47.391Z" transform="translate(0 -26.315)"/></g></g><g transform="translate(12.261 33.931)"><rect class="a" width="1.526" height="7.63"/></g><g transform="translate(12.006 43.087)"><path class="a" d="M237.019,355.99a1.017,1.017,0,1,0,1.017,1.017A1.019,1.019,0,0,0,237.019,355.99Z" transform="translate(-236.002 -355.99)"/></g></g></svg>