<svg xmlns="http://www.w3.org/2000/svg" width="24.654" height="32.5" viewBox="0 0 24.654 32.5"><defs><style>.a{fill:#aeb8c5;stroke:#aeb8c5;stroke-width:0.5px;}</style></defs><g transform="translate(0.25 0.25)"><g transform="translate(0)"><g transform="translate(0)"><path class="a" d="M165.512,161.157a3.206,3.206,0,0,0-1.524-.357,3.391,3.391,0,0,0-1.167.195,2.084,2.084,0,0,0-.875.584,3,3,0,0,0-.551.94,3.775,3.775,0,0,0-.195,1.232,3.581,3.581,0,0,0,.195,1.2,2.547,2.547,0,0,0,1.427,1.556,3.52,3.52,0,0,0,2.4.032,2.146,2.146,0,0,0,.875-.616,3,3,0,0,0,.551-.94,3.853,3.853,0,0,0-.13-2.756A2.481,2.481,0,0,0,165.512,161.157Zm-.1,3.728a1.546,1.546,0,0,1-.584.681,1.613,1.613,0,0,1-1.459.1,1.978,1.978,0,0,1-.519-.389,1.775,1.775,0,0,1-.357-.648,3.551,3.551,0,0,1-.13-.875,2.485,2.485,0,0,1,.13-.875,2.416,2.416,0,0,1,.324-.648,1.56,1.56,0,0,1,.519-.389,1.452,1.452,0,0,1,.648-.13,1.606,1.606,0,0,1,.875.227,1.5,1.5,0,0,1,.584.681,2.8,2.8,0,0,1,.195,1.1A3.115,3.115,0,0,1,165.415,164.885Z" transform="translate(-152.057 -147.767)"/><path class="a" d="M72.489,6.387l-.032-.032V6.322L66.3.162,66.264.13A.032.032,0,0,1,66.232.1.032.032,0,0,1,66.2.065.533.533,0,0,0,65.875,0H50.6a2.2,2.2,0,0,0-1.556.648A2.264,2.264,0,0,0,48.4,2.2V29.8a2.158,2.158,0,0,0,.616,1.524l.032.032A2.264,2.264,0,0,0,50.6,32H70.349a2.2,2.2,0,0,0,1.556-.648,2.264,2.264,0,0,0,.648-1.556V6.711A.959.959,0,0,0,72.489,6.387Zm-6-4.053L70.155,6H67.464a.883.883,0,0,1-.681-.292,1.011,1.011,0,0,1-.292-.681V2.334ZM71.16,29.8a.89.89,0,0,1-.843.843H50.6a.812.812,0,0,1-.584-.259l-.032-.032a.92.92,0,0,1-.227-.551V2.172a.812.812,0,0,1,.259-.584.812.812,0,0,1,.584-.259H65.129V4.993a2.355,2.355,0,0,0,.713,1.686,2.4,2.4,0,0,0,1.686.681H71.16Z" transform="translate(-48.4)"/><path class="a" d="M241.254,160.995a2.591,2.591,0,0,0-.875.584,2.558,2.558,0,0,0-.584.94,3.639,3.639,0,0,0-.195,1.232,6.316,6.316,0,0,0,.065.811,4.593,4.593,0,0,0,.227.713,2.466,2.466,0,0,0,.389.616,2.581,2.581,0,0,0,.551.486,2.127,2.127,0,0,0,.681.259,3.266,3.266,0,0,0,.811.1,2.575,2.575,0,0,0,1.037-.195,2.475,2.475,0,0,0,.746-.486,2.322,2.322,0,0,0,.421-.616,1.472,1.472,0,0,0,.13-.584.521.521,0,0,0-.162-.357.488.488,0,0,0-.357-.13.4.4,0,0,0-.357.13,3.537,3.537,0,0,0-.195.357,1.517,1.517,0,0,1-.519.713,1.445,1.445,0,0,1-.843.259,1.393,1.393,0,0,1-.811-.227,1.3,1.3,0,0,1-.519-.648,2.686,2.686,0,0,1-.195-1.1,2.368,2.368,0,0,1,.421-1.524,1.383,1.383,0,0,1,1.135-.551,1.343,1.343,0,0,1,.746.195,1.533,1.533,0,0,1,.519.648,1.124,1.124,0,0,0,.259.357.484.484,0,0,0,.324.1.4.4,0,0,0,.324-.162.488.488,0,0,0,.13-.357,1.455,1.455,0,0,0-.292-.778,2.286,2.286,0,0,0-.843-.681,2.561,2.561,0,0,0-1.232-.292A3.027,3.027,0,0,0,241.254,160.995Z" transform="translate(-224.103 -147.767)"/><path class="a" d="M95.988,162.519a2.264,2.264,0,0,0-.778-.421A4.592,4.592,0,0,0,94.2,162H92.713a.859.859,0,0,0-.551.162.8.8,0,0,0-.162.551V166.9a.962.962,0,0,0,.065.454.4.4,0,0,0,.195.259.911.911,0,0,0,.486.1h1.491a4.854,4.854,0,0,0,.713-.065,3.918,3.918,0,0,0,.584-.162,1.817,1.817,0,0,0,.486-.324,2.905,2.905,0,0,0,.486-.616,2.77,2.77,0,0,0,.292-.778,4.189,4.189,0,0,0,.1-.94A3.067,3.067,0,0,0,95.988,162.519Zm-.875,3.988a1.315,1.315,0,0,1-.292.162,1.428,1.428,0,0,1-.324.065H93.167v-3.826h.778a2.556,2.556,0,0,1,.908.13,1.013,1.013,0,0,1,.616.551,2.63,2.63,0,0,1,.259,1.264A2.167,2.167,0,0,1,95.112,166.507Z" transform="translate(-88.466 -148.869)"/></g></g></g></svg>