<svg xmlns="http://www.w3.org/2000/svg" width="30.72" height="27" viewBox="0 0 30.72 27"><defs><style>.a{fill:#fff;}</style></defs><g transform="translate(0 -31)"><path class="a" d="M28.02,32.8H5.4V31H0v9H5.4V38.2H28.02a2.7,2.7,0,0,0,0-5.4ZM3.6,38.2H1.8V32.8H3.6Zm24.42-1.8H5.4V34.6H28.02a.9.9,0,0,1,0,1.8Z"/><path class="a" d="M25.32,332.8H2.7a2.7,2.7,0,0,0,0,5.4H25.32V340h5.4v-9h-5.4ZM2.7,336.4a.9.9,0,0,1,0-1.8H25.32v1.8Zm24.42-3.6h1.8v5.4h-1.8Z" transform="translate(0 -282)"/><path class="a" d="M28.02,182.8H18.06V181h-5.4v1.8H2.7a2.7,2.7,0,0,0,0,5.4h9.96V190h5.4v-1.8h9.96a2.7,2.7,0,0,0,0-5.4ZM2.7,186.4a.9.9,0,1,1,0-1.8h9.96v1.8Zm13.56,1.8h-1.8v-5.4h1.8Zm11.76-1.8H18.06v-1.8h9.96a.9.9,0,1,1,0,1.8Z" transform="translate(0 -141)"/></g></svg>