<svg xmlns="http://www.w3.org/2000/svg" width="283.189" height="190.23" viewBox="0 0 283.189 190.23"><defs><style>.a{fill:#efffd1;}.b{opacity:0.5;}.c{fill:#98ca3c;}.d{opacity:0.3;}.e{fill:#c8e395;}.f{fill:#dcf5ae;}.g{fill:#d5f1a1;}.h{fill:#c0d4ff;}.i{fill:#86a2e2;}.j{fill:#6ed4ff;}.k{fill:#33afe4;}.l{fill:#53beec;}.m{fill:#8adafc;}.n{fill:#329dcb;}.o{fill:#2c3a64;}.p{fill:#abddda;}.q{fill:#2b478b;}.r{fill:#233862;}.s{fill:#ffb27d;}.t{fill:#ed985f;}.u{fill:#6bb7bf;}.v{fill:#91cecf;}.w{fill:#f3faff;}.x{fill:#aec3ff;}.y{fill:#afcdfb;}.z{fill:#ffc9a4;}.aa{fill:#e8945b;}.ab{fill:#e5803c;}.ac{fill:#f49656;}.ad{fill:#f4a671;}.ae{fill:#f99746;}.af{fill:#163560;}</style></defs><g transform="translate(0.022 0)"><path class="a" d="M562.052,341.517c-17.956,0-246.523.029-246.523,0-.1-.226-51.253-23.77,6.416-91.242,19.48-22.791-6.2-40.1,13.249-59.414,22.348-22.19,33.98-3.867,58.831-13.929a39.993,39.993,0,0,0,13.207-9.022c10.3-10.234,24.4-14.876,38.755-15.922,27.766-2.01,59.015,9.294,75.141,25.816,3.247,3.327,18.009,20.542,6.373,44.2-7.348,14.938,23.433,29.207,34.371,46.266C589.68,311.646,562.3,340.951,562.052,341.517Z" transform="translate(-294.513 -151.758)"/></g><g class="b" transform="translate(71.318 34.581)"><g class="b" transform="translate(12.848)"><path class="c" d="M1046.407,485.259s-2.384-19.01-12.2-30.3a2.128,2.128,0,0,0-3.725,1.462c0,.033,0,.066,0,.1C1030.634,459.91,1041.632,474.159,1046.407,485.259Z" transform="translate(-1030.483 -454.225)"/></g><g class="b" transform="translate(0 1.983)"><path class="c" d="M948.093,506.061s-9.854-23.719-26.507-34.137a2.256,2.256,0,0,0-3.056.6,3.583,3.583,0,0,0-.126,3.216C919.751,479.912,938.337,493.879,948.093,506.061Z" transform="translate(-918.104 -471.572)"/></g></g><g class="d" transform="translate(23.228 107.232)"><path class="c" d="M538.193,1092.1s15.182,10.045,13.138,12.754-16.11-12.412-16.11-12.412-17.32,6.359-21.411,11.481c0,0,19.717,4.768,17.07,6.891s-23.4-1.885-23.4-1.885-14.139,10.034-8.8,19.033,12.046,9.347,14.258,7.975,13.349-13.147,14.566-11.379-3.99,11.966-9.6,15.026c0,0,16.621,6.749,22.174-.181s3.533-12.7,7.042-16.923,7.351-6.063,6.5-3.073-8.01,8.944-8.392,14.733-1.16,10.045,5.712,5.251c18.809-13.12,11.477-29.045,11.477-29.045s4.652-17.484-9.087-20.553C553.34,1089.788,543.95,1088.886,538.193,1092.1Z" transform="translate(-497.481 -1089.672)"/></g><g class="d" transform="translate(49.696 69.692)"><path class="c" d="M758.946,762.675s4.943,9.288,3.157,10.1-4.761-10.747-4.761-10.747-10.552-1.546-14.042-.072c0,0,8.7,7.859,6.771,8.208s-11.364-7.409-11.364-7.409-9.949,1.2-9.717,7.243,3.542,8.069,5.044,7.983,10.406-3,10.537-1.764-5.327,4.978-9.021,4.986c0,0,6.582,8.011,11.314,6.023s5.3-5.479,8.243-6.655,5.407-1.052,4.151.232-6.535,2.335-8.326,5.17-3.359,4.782,1.453,4.243c13.173-1.478,13.839-11.59,13.839-11.59s7.185-7.6,1.052-12.947C767.276,765.678,762.755,762.63,758.946,762.675Z" transform="translate(-728.985 -761.32)"/></g><g class="d" transform="translate(109.747 34.689)"><path class="c" d="M1265.609,473.408s-.11,18.333,3.3,18.142-1.35-20.437-1.35-20.437,15.032-10.923,21.61-11.474c0,0-7.068,19.168-3.807,18.143s11.542-20.629,11.542-20.629,16.322-6.2,20.855,3.313,1.064,15.318-1.324,16.4-18.484,3.795-17.687,5.8,12.247,3.373,17.953.394c0,0-3.675,17.688-12.584,18.448s-12.608-4.169-18.105-3.6-9.194,2.751-6.217,3.717,11.974-1.685,17.031,1.24,9.054,4.662,1.19,7.723c-21.523,8.377-30.732-6.686-30.732-6.686s-17.234-5.912-12.1-19.126C1255.185,484.785,1259.7,476.424,1265.609,473.408Z" transform="translate(-1254.23 -455.167)"/></g><g transform="translate(218.362 143.415)"><g transform="translate(24.605 18.376)"><g transform="translate(3.95)"><path class="e" d="M2455.494,1574.66s-3.219-3.757-.2-6.143a8.566,8.566,0,0,1,4.006-1.228s-2.55,4.276-1.725,4.7,2.5-4.969,2.5-4.969,5.022-.487,6.638.289c0,0-4.293,3.513-3.389,3.723s5.542-3.239,5.542-3.239,4.674.8,4.425,3.647-1.86,3.732-2.568,3.656-4.849-1.657-4.939-1.077,2.4,2.475,4.148,2.564c0,0-3.3,3.635-5.486,2.585s-2.377-2.712-3.742-3.335-2.53-.622-1.967.014,3.034,1.254,3.815,2.635,1.482,2.313-.784,1.971-5.95-2-6.111-3.9Z" transform="translate(-2454.003 -1566.871)"/></g><g transform="translate(0 4.625)"><g transform="translate(2.617)"><path class="e" d="M2460.665,1607.349s-12.7-.489-15.5,3.142a9.179,9.179,0,0,1-2.528,3.548l-.3.811s2.2-2.32,2.988-2.46C2445.327,1612.389,2444.1,1607.891,2460.665,1607.349Z" transform="translate(-2442.34 -1607.327)"/></g><g transform="translate(0 6.392)"><path class="e" d="M2422.365,1663.558a7.975,7.975,0,0,0-2.915,5.616l.5.045s.87-3.724,2.443-5.179S2422.365,1663.558,2422.365,1663.558Z" transform="translate(-2419.45 -1663.239)"/></g></g></g><g transform="translate(0 8.176)"><path class="e" d="M2223.028,1490.92s5.122-2.869,2.731-6.762a10.164,10.164,0,0,0-3.961-3s1.093,5.8,0,5.942-.751-6.557-.751-6.557-5.4-2.6-7.513-2.391c0,0,3.346,5.668,2.254,5.531s-4.849-5.873-4.849-5.873-5.531-1.025-6.42,2.253.547,4.917,1.366,5.122,6.078.136,5.942.82-3.688,1.776-5.668,1.161c0,0,2.186,5.4,5.053,5.122s3.756-2.049,5.531-2.185,3.073.342,2.186.82-3.893.157-5.327,1.375-2.6,1.971.069,2.516,7.444.2,8.4-1.844Z" transform="translate(-2204.239 -1477.655)"/><g transform="translate(2.808 3.431)"><path class="e" d="M2228.8,1507.66s14.342,4.644,15.981,9.835a10.893,10.893,0,0,0,1.366,4.986v1.024s-1.5-3.482-2.322-3.962C2243.825,1519.544,2247.036,1515.036,2228.8,1507.66Z" transform="translate(-2228.8 -1507.66)"/><g transform="translate(16.662 14.182)"><path class="e" d="M2375.223,1632.339a9.46,9.46,0,0,1,.951,7.448l-.57-.153s.552-4.5-.6-6.768S2375.223,1632.339,2375.223,1632.339Z" transform="translate(-2374.538 -1631.702)"/></g></g></g><g transform="translate(22.5)"><path class="f" d="M2405.472,1423.629s-6.752-3.781-3.6-8.912c0,0,2.521-3.151,5.222-3.962,0,0-1.44,7.652,0,7.832s.99-8.642.99-8.642,7.112-3.421,9.9-3.151c0,0-4.411,7.473-2.97,7.292s6.392-7.742,6.392-7.742,7.292-1.35,8.463,2.972-.72,6.481-1.8,6.752-8.012.179-7.832,1.08,4.861,2.34,7.472,1.531c0,0-2.881,7.113-6.662,6.752s-4.952-2.7-7.292-2.881-4.051.451-2.881,1.081,5.131.207,7.022,1.813,3.421,2.6-.091,3.318-9.813.27-11.073-2.431Z" transform="translate(-2401.032 -1406.143)"/><g transform="translate(0.873 4.521)"><g transform="translate(1.765)"><path class="f" d="M2446.976,1445.69s-18.906,6.121-21.066,12.964a14.353,14.353,0,0,1-1.8,6.572v1.35s1.98-4.592,3.061-5.221C2427.171,1461.354,2422.939,1455.413,2446.976,1445.69Z" transform="translate(-2424.11 -1445.69)"/></g><g transform="translate(0 18.695)"><path class="f" d="M2410.435,1610.048a12.467,12.467,0,0,0-1.253,9.816l.75-.2s-.729-5.936.8-8.921S2410.435,1610.048,2410.435,1610.048Z" transform="translate(-2408.669 -1609.208)"/></g></g></g><g transform="translate(13.485 32.335)"><path class="g" d="M2335.416,1702.186a13.225,13.225,0,0,0,13.226-13.226H2322.19A13.225,13.225,0,0,0,2335.416,1702.186Z" transform="translate(-2322.19 -1688.96)"/></g><g transform="translate(13.303 44.602)"><path class="h" d="M2347.407,1797.891H2320.59a1.632,1.632,0,0,1,1.632-1.631h23.553a1.63,1.63,0,0,1,1.632,1.631Z" transform="translate(-2320.59 -1796.26)"/></g><g transform="translate(13.05 32.335)"><rect class="i" width="27.188" height="0.406"/></g></g><g transform="translate(160.931 60.708)"><g transform="translate(17.056 0.001)"><path class="j" d="M1867.688,697.358h-16.6v-8.631a5.883,5.883,0,0,1,5.785-5.977h10.813Z" transform="translate(-1851.09 -682.75)"/></g><g transform="translate(10.939 14.609)"><path class="j" d="M1821.936,925.132h-17.962a6.383,6.383,0,0,1-6.383-6.383V816.9a6.384,6.384,0,0,1,6.383-6.383h17.962a6.383,6.383,0,0,1,6.383,6.383V918.749A6.384,6.384,0,0,1,1821.936,925.132Z" transform="translate(-1797.59 -810.52)"/></g><g transform="translate(21.261 14.609)"><path class="k" d="M1912.216,925.132h-17.963a6.383,6.383,0,0,1-6.383-6.383V816.9a6.384,6.384,0,0,1,6.383-6.383h17.963a6.383,6.383,0,0,1,6.383,6.383V918.749A6.383,6.383,0,0,1,1912.216,925.132Z" transform="translate(-1887.87 -810.52)"/></g><g transform="translate(27.635)"><path class="j" d="M1960.421,712.605h-11.234a5.567,5.567,0,0,1-5.567-5.567V688.307a5.567,5.567,0,0,1,5.567-5.567h11.234a5.567,5.567,0,0,1,5.567,5.567v18.732A5.567,5.567,0,0,1,1960.421,712.605Z" transform="translate(-1943.62 -682.74)"/></g><g transform="translate(35.544)"><path class="l" d="M2029.6,712.605h-11.234a5.567,5.567,0,0,1-5.567-5.567V688.307a5.567,5.567,0,0,1,5.567-5.567H2029.6a5.567,5.567,0,0,1,5.567,5.567v18.732A5.568,5.568,0,0,1,2029.6,712.605Z" transform="translate(-2012.8 -682.74)"/></g><g transform="translate(0 119.551)"><path class="m" d="M1763.053,1738.07h-57.819a3.324,3.324,0,0,1-3.323-3.324v-3.023a3.324,3.324,0,0,1,3.323-3.324h57.819a3.324,3.324,0,0,1,3.324,3.324v3.023A3.323,3.323,0,0,1,1763.053,1738.07Z" transform="translate(-1701.91 -1728.4)"/></g><g transform="translate(17.768 119.552)"><path class="n" d="M1901.19,1738.079h-41.04a2.829,2.829,0,0,1-2.829-2.829v-4.012a2.828,2.828,0,0,1,2.829-2.829h41.04a2.829,2.829,0,0,1,2.83,2.829v4.012A2.829,2.829,0,0,1,1901.19,1738.079Z" transform="translate(-1857.32 -1728.41)"/></g></g><g transform="translate(49.103 52.818)"><g transform="translate(13.009 40.761)"><path class="o" d="M843.276,973.076c-.008-.229-.185-2.7-3.946-2.826,0,0,1.849.221,2.168,1.034,0,0-1.259-1-2.284-.681s-1.627,2.119-1.634,2.71.564,2.495,1.214,2.657a1.985,1.985,0,0,0,.788,0,8.94,8.94,0,0,0-.505.9c-1.5,3.079.047,6.089,1.317,5.756.814-.214,1.045,1.177,1.045,1.177l7.913-6.406S846.447,971.383,843.276,973.076Z" transform="translate(-837.58 -970.25)"/></g><g transform="translate(20.323 61.691)"><path class="p" d="M913.487,1167.906a11.4,11.4,0,0,1-.948,1.778,4.834,4.834,0,0,1-1.694,1.668c-.522-.253-1.466-.624-1.865-.87-1.445-.883-3.505-3.385-5.188-6.07-.257-.409-.505-.822-.741-1.235a2.091,2.091,0,0,1-.128-.229,15.117,15.117,0,0,1-1.363-3.1l3.058-6.536c.011.011.95.566,1.778,2.947,1.233,3.543,3.23,8.574,4.617,10.113a10.556,10.556,0,0,0,2.418,1.477h0C913.456,1167.887,913.476,1167.906,913.487,1167.906Z" transform="translate(-901.56 -1153.31)"/></g><g transform="translate(7.638 82.079)"><path class="q" d="M804.431,1383.87l-1.681.625s-7.3-10.126-8.2-19.035c-.16-1.59.169-4.962.043-5.682-.057-.336-.129-.741-.21-1.2-.238-1.359-.564-3.221-.937-5.339-.859-4.876-1.972-11.108-2.837-15.691l.453-.145,4.9-1.581,1.013-3.216,3.649-.96s.815,1.595,1.543,9.127c.135.988.256,2.077.349,3.26a64.547,64.547,0,0,1-.348,13.195,79.453,79.453,0,0,0-.781,8.049C801.758,1372.552,804.431,1383.87,804.431,1383.87Z" transform="translate(-790.61 -1331.64)"/></g><g transform="translate(7.64 82.08)"><path class="r" d="M802.528,1344.035l-7.923,15.753c-.057-.336-.129-.741-.21-1.205-.238-1.359-.564-3.221-.937-5.339-.859-4.876-1.972-11.109-2.837-15.691l.453-.145,4.9-1.581,1.013-3.216,3.649-.96s.815,1.595,1.543,9.127C802.314,1341.764,802.436,1342.853,802.528,1344.035Z" transform="translate(-790.62 -1331.65)"/></g><g transform="translate(0.316 80.246)"><path class="q" d="M742.312,1319.464l-.183-1.573c-3.073.817-11.284-2.281-11.284-2.281s-2.977,2.617-2.586,8.889c.191,3.062.54,16.073.9,19.922a21.712,21.712,0,0,1-1.138,5.956c-3.573,9.519.55,21.244.55,21.244l1.07-.431s6.768-24.539,7.467-27.139a150.573,150.573,0,0,0,3.088-16.244C740.3,1327.811,742.312,1319.464,742.312,1319.464Z" transform="translate(-726.567 -1315.61)"/></g><g transform="translate(14.259 53.584)"><path class="s" d="M852.65,1094.676c-5.283.289-4.123-7.586-3.8-7.546.646-.337,1.808-1.978,2.479-4.721l.227.105,3.812,1.793s-.4,1.24-.7,2.427a4.842,4.842,0,0,0-.261,2.077c.3.122.48.2.48.2a.02.02,0,0,0,0,0C854.922,1089.113,854.058,1094.6,852.65,1094.676Z" transform="translate(-848.515 -1082.41)"/></g><g transform="translate(17.298 53.69)"><path class="t" d="M878.913,1085.123s-.406,1.239-.7,2.427c-2.228-.622-2.905-2.964-3.109-4.22Z" transform="translate(-875.1 -1083.33)"/></g><g transform="translate(16.984 47.099)"><path class="s" d="M876.948,1035.377s-5.331-1.234-4.511-4.542.684-5.695,4.122-5.048,3.784,2.074,3.78,3.245S878.355,1035.613,876.948,1035.377Z" transform="translate(-872.351 -1025.681)"/></g><g transform="translate(15.644 46.496)"><path class="o" d="M870.257,1022.483c-.573-1.2-1.247-1.135-1.669-.923a3.824,3.824,0,0,0-4.962-.424,6.513,6.513,0,0,1-3,3.218s.819.838,3.193.82a3.91,3.91,0,0,0,2.117-.8,12.758,12.758,0,0,1-2.779,2.073c2.971-.568,4.964-4.008,5.168-4.374a4.3,4.3,0,0,1,.774,1.832c.055.908-.257,2.672.263,2.738C869.365,1026.646,871.116,1024.281,870.257,1022.483Z" transform="translate(-860.63 -1020.407)"/></g><g transform="translate(0.03 132.359)"><path class="r" d="M732.577,1776.192h-8.466a4.66,4.66,0,0,1,.239-2.27c.424-.94,1.087-1.366.928-2.5a3.05,3.05,0,0,0,2.639,1.01,9.252,9.252,0,0,0,1.469,1.9C729.941,1774.731,732.407,1774.589,732.577,1776.192Z" transform="translate(-724.065 -1771.42)"/></g><g transform="translate(18.164 132.74)"><path class="r" d="M891.23,1779.142h-8.466a3.52,3.52,0,0,1,.239-2.27,1.633,1.633,0,0,0-.061-1.948,3.293,3.293,0,0,0,1.426.269,2.982,2.982,0,0,0,1.259-.442,30.356,30.356,0,0,0,2.412,2.534C888.592,1777.68,891.06,1777.539,891.23,1779.142Z" transform="translate(-882.674 -1774.75)"/></g><g transform="translate(0 58.175)"><path class="p" d="M747.182,1126.081l-1.388,18.643-.849,11.415c-1.306.406-2.548.724-3.728.967a13.931,13.931,0,0,0-.388-2.1,6.056,6.056,0,0,1-1.106,2.373c-10.841,1.737-15.923-2.992-15.923-2.992a124.36,124.36,0,0,1,4.435-19.75c.455-1.476.926-2.894,1.4-4.2a57.149,57.149,0,0,1,2.357-5.726c1.111-2.287,6.081-2.142,6.081-2.142a12.162,12.162,0,0,0,3.588,5.6c1.4-.823,2.447-3.719,2.447-3.719Z" transform="translate(-723.8 -1122.564)"/></g><g transform="translate(14.279 57.539)"><path class="u" d="M849.785,1117s-.9.061-1.1.637c0,0,1.177,4.738,3.587,5.6Z" transform="translate(-848.69 -1117)"/></g><g transform="translate(17.865 59.475)"><path class="u" d="M880.06,1138.232s2.249-3.741,2.24-4.3c0,0,.929.361.871.938C883.172,1134.867,881.232,1137.973,880.06,1138.232Z" transform="translate(-880.06 -1133.93)"/></g><g transform="translate(11.693 62.091)"><path class="v" d="M826.07,1156.81c.065.224,8.182,13.182,8.359,15.763s-3.413,1.122-3.469.786S826.07,1156.81,826.07,1156.81Z" transform="translate(-826.07 -1156.81)"/></g><g transform="translate(8.897 63.905)"><path class="v" d="M814.718,1189.109l-.849,11.415c-11.61-3.344-12.248-27.844-12.248-27.844l7.175,12.955,5.86,3.388S814.677,1189.052,814.718,1189.109Z" transform="translate(-801.62 -1172.68)"/></g><g transform="translate(29.594 76.248)"><path class="p" d="M982.667,1280.657c0,.014-.009.021-.017.021l.01-.024C982.671,1280.633,982.673,1280.633,982.667,1280.657Z" transform="translate(-982.65 -1280.639)"/></g><g transform="translate(27.071)"><rect class="k" width="84.689" height="115.815"/><g transform="translate(3.608 3.125)"><rect class="w" width="77.473" height="109.498"/></g><g transform="translate(26.283)"><path class="c" d="M1190.47,613.73v3.946a3.943,3.943,0,0,0,3.941,3.946h21.172a3.943,3.943,0,0,0,3.941-3.946V613.73Z" transform="translate(-1190.47 -613.73)"/></g><g transform="translate(12.602 101.93)"><rect class="x" width="9.585" height="0.971"/><g transform="translate(11.806)"><rect class="x" width="9.585" height="0.971"/></g><g transform="translate(0 2.153)"><rect class="x" width="13.293" height="0.971"/></g></g><g transform="translate(10.138 16.969)"><g transform="translate(0 19.163)"><g transform="translate(0 3.463)"><rect class="x" width="65.064" height="1.367"/></g><g transform="translate(0 9.568)"><rect class="x" width="59.963" height="1.367"/></g><g transform="translate(0 6.516)"><g transform="translate(23.664)"><rect class="x" width="17.736" height="1.367"/></g><g transform="translate(44.472)"><rect class="x" width="20.592" height="1.367"/></g><rect class="x" width="21.024" height="1.367"/></g><g transform="translate(23.664)"><rect class="x" width="17.736" height="1.367"/></g><g transform="translate(44.472)"><rect class="x" width="20.592" height="1.367"/></g><rect class="x" width="21.024" height="1.367"/></g><g transform="translate(0 40.904)"><rect class="x" width="65.064" height="1.367"/></g><g transform="translate(0 47.009)"><rect class="x" width="50.203" height="1.367"/></g><g transform="translate(0 37.441)"><g transform="translate(23.664)"><rect class="x" width="17.736" height="1.367"/></g><g transform="translate(44.472)"><rect class="x" width="20.592" height="1.367"/></g><rect class="x" width="21.024" height="1.367"/></g><g transform="translate(24.977)"><g transform="translate(20.836)"><rect class="x" width="15.618" height="1.367"/></g><g transform="translate(0 2.87)"><rect class="x" width="13.092" height="1.367"/></g><g transform="translate(15.278 2.87)"><rect class="x" width="17.766" height="1.367"/></g><g transform="translate(0 6.185)"><rect class="x" width="15.97" height="1.367"/></g><g transform="translate(18.572 6.185)"><rect class="x" width="8.711" height="1.367"/></g><rect class="x" width="18.512" height="1.367"/></g></g><g transform="translate(27.069 76.639)"><rect class="x" width="14.706" height="0.885"/><g transform="translate(0 3.956)"><rect class="x" width="13.554" height="0.885"/></g><g transform="translate(0 1.978)"><g transform="translate(10.698)"><rect class="x" width="4.01" height="0.885"/></g><rect class="x" width="9.587" height="0.885"/></g></g><g transform="translate(61.648 76.639)"><rect class="x" width="14.707" height="0.885"/><g transform="translate(0 3.956)"><rect class="x" width="13.554" height="0.885"/></g><g transform="translate(0 1.978)"><g transform="translate(10.698)"><rect class="x" width="4.01" height="0.885"/></g><rect class="x" width="9.587" height="0.885"/></g></g><g transform="translate(39.6 90.639)"><g transform="translate(2.618 9.155)"><path class="x" d="M1335.666,1491.823a5.961,5.961,0,0,1-5.822-4.746.407.407,0,0,1,.8-.164,5.131,5.131,0,0,0,10.039.048.407.407,0,1,1,.8.172A5.97,5.97,0,0,1,1335.666,1491.823Z" transform="translate(-1329.835 -1486.588)"/></g><g transform="translate(2.606 2.505)"><path class="x" d="M1330.143,1433.711a.352.352,0,0,1-.078-.008.407.407,0,0,1-.322-.477,5.944,5.944,0,0,1,11.6-.314.407.407,0,1,1-.79.2,5.13,5.13,0,0,0-10.01.272A.407.407,0,0,1,1330.143,1433.711Z" transform="translate(-1329.736 -1428.42)"/></g><path class="x" d="M1315.388,1423.406a8.448,8.448,0,1,1,8.448-8.448A8.458,8.458,0,0,1,1315.388,1423.406Zm0-15.739a7.291,7.291,0,1,0,7.291,7.291A7.3,7.3,0,0,0,1315.388,1407.667Z" transform="translate(-1306.94 -1406.51)"/><g transform="translate(5.985 7.389)"><g transform="translate(0.79)"><rect class="x" width="3.346" height="0.535"/></g><g transform="translate(0.79 2.192)"><rect class="x" width="3.346" height="0.535"/></g><g transform="translate(0 1.058)"><rect class="x" width="4.925" height="0.535"/></g></g></g><g transform="translate(13.865 73.185)"><g transform="translate(0 1.723)"><path class="y" d="M1091.907,1278.977H1081.85V1268.92h10.057Zm-9.582-.473h9.109v-9.109h-9.109Z" transform="translate(-1081.85 -1268.92)"/></g><g transform="translate(1.465)"><path class="c" d="M1098.479,1263.605a.713.713,0,0,1-.547-.258l-3.1-3.753a.711.711,0,0,1,1.1-.906l2.462,2.977,4.452-7.473a.711.711,0,1,1,1.221.727l-4.968,8.338a.71.71,0,0,1-.556.345Z" transform="translate(-1094.665 -1253.847)"/></g></g><g transform="translate(49.122 73.185)"><g transform="translate(0 1.723)"><path class="y" d="M1400.286,1278.977H1390.23V1268.92h10.057Zm-9.583-.473h9.109v-9.109H1390.7Z" transform="translate(-1390.23 -1268.92)"/></g><g transform="translate(1.464)"><path class="c" d="M1406.846,1263.605a.713.713,0,0,1-.547-.258l-3.1-3.753a.71.71,0,0,1,1.1-.906l2.462,2.977,4.452-7.473a.711.711,0,0,1,1.221.727l-4.968,8.338a.71.71,0,0,1-.556.345Z" transform="translate(-1403.032 -1253.847)"/></g></g><g transform="translate(9.819 10.855)"><path class="j" d="M1066.973,718.927a10.257,10.257,0,1,1-10.257-10.257A10.21,10.21,0,0,1,1066.973,718.927Z" transform="translate(-1046.46 -708.67)"/><g transform="translate(2.35 2.349)"><path class="q" d="M1074.942,729.235a6.349,6.349,0,0,0-5.886,3.814c-1.816,3.682-2.51,3.934-1.728,5.1s8.3,3.279,13.852.877c0,0,2.015-.877,1.242-2.4S1079.582,728.845,1074.942,729.235Z" transform="translate(-1067.011 -729.217)"/></g><g transform="translate(5.131 3.183)"><circle class="z" cx="4.263" cy="4.263" r="4.263" transform="translate(0 8.298) rotate(-76.714)"/></g><g transform="translate(2.952 11.616)"><path class="z" d="M1086.891,816.107a10.255,10.255,0,0,1-14.612,0,7.49,7.49,0,0,1,14.612,0Z" transform="translate(-1072.28 -810.27)"/></g><g transform="translate(5.984 3.749)"><path class="q" d="M1103.42,741.53s-1.306,3.42-4.613,3.29C1098.806,744.82,1098.355,740.881,1103.42,741.53Z" transform="translate(-1098.796 -741.458)"/></g><g transform="translate(9.898 3.749)"><path class="q" d="M1133.03,741.53s1.306,3.42,4.614,3.29C1137.643,744.82,1138.095,740.881,1133.03,741.53Z" transform="translate(-1133.03 -741.458)"/></g></g></g><g transform="translate(24.841 80.185)"><path class="s" d="M948.312,1316.109a8.235,8.235,0,0,1-2.445-.3s2.042-.028,1.607-.675a11.06,11.06,0,0,0-2.227-.028,3.946,3.946,0,0,0-1.554.667c-.821-.109-1.567-.267-1.809-.32a.394.394,0,0,1-.089-.025l-.725,2.112s.153.038.42.089a28.474,28.474,0,0,1,3.371,1.03,3.373,3.373,0,0,0,3.791-.814,2.12,2.12,0,0,0,.672-1.33C949.3,1316.091,948.739,1316.111,948.312,1316.109Z" transform="translate(-941.07 -1315.077)"/></g><g transform="translate(16.819 76.307)"><path class="s" d="M881.245,1286.223l-.446,1.628s-.56-.1-1.451-.266c-.268-.051-.42-.09-.42-.09-.712-.139-1.564-.329-2.492-.534h-.014c-1.589-.382-3.371-.839-4.872-1.348-.135-.047-.267-.094-.4-.142-.887-.328.828-4.832,1.6-4.273.206.149.427.3.657.461,1.286.874,2.925,1.848,4.38,2.667.712.407,1.387.776,1.947,1.081C880.647,1285.905,881.245,1286.223,881.245,1286.223Z" transform="translate(-870.907 -1281.15)"/></g><g transform="translate(7.702 58.843)"><path class="p" d="M802.8,1146.377a5.245,5.245,0,0,1-2.786,4.572c-3.328-1.2-5.108-6.165-6.483-9.574-.191-.47-.369-.941-.546-1.4a34.828,34.828,0,0,1-1.451-4.834,13.622,13.622,0,0,1-.343-2.3,5.421,5.421,0,0,1-.013-.648c.025-3.688,2.633-4.07,2.976-3.651a11.561,11.561,0,0,1,1.36,2.4c.725,1.641,1.488,3.765,2.2,5.877.395,1.158.776,2.315,1.158,3.383.216.648.433,1.259.636,1.819a17.651,17.651,0,0,0,1.068,2.481,6.165,6.165,0,0,0,1.565,1.412C802.346,1146.066,802.567,1146.219,802.8,1146.377Z" transform="translate(-791.17 -1128.404)"/></g></g><g transform="translate(186.285 121.496)"><rect class="q" width="22.285" height="2.482"/></g><g transform="translate(189.828 95.927)"><g transform="translate(20.477 15.203)"><path class="s" d="M2139.966,1142.933c-.8,1.984-4.38,9.247-4.38,9.247l-1.826-1.254s2.679-8.418,2.535-9.623-1.087-6.345-1.087-6.345l-.252-11.2a5.38,5.38,0,0,1,3.1,3.812C2138.56,1130.357,2140.77,1140.95,2139.966,1142.933Z" transform="translate(-2133.76 -1123.76)"/></g><g transform="translate(7.414 14.539)"><path class="s" d="M2035.107,1124.989l-3.385,15.026-12-.557s-.847-10.528.887-14.645a35.84,35.84,0,0,1,2.825-5.7s1.992-2.229,10.338-.494Z" transform="translate(-2019.51 -1117.956)"/></g><g transform="translate(6.247 57.997)"><path class="s" d="M2009.3,1499.773c0,1.4,1.132,8.991,1.7,28.232.011.386.379.68,1.5.364,1.559-.44,1.744-.161,1.744-.161a241.884,241.884,0,0,0,2.152-24.487C2016.575,1497.575,2009.294,1496.715,2009.3,1499.773Z" transform="translate(-2009.3 -1498.057)"/></g><g transform="translate(13.325 9.626)"><path class="s" d="M2076.741,1080.612a21.289,21.289,0,0,1,.014-5.632l-.279.013-4.69.22s-.111,1.449-.31,2.8c0,.011,0,.023,0,.033a11.7,11.7,0,0,0-.246,2.454C2071.491,1081.69,2076.915,1081.493,2076.741,1080.612Z" transform="translate(-2071.206 -1074.98)"/></g><g transform="translate(13.596 9.64)"><path class="aa" d="M2073.89,1075.32s-.111,1.449-.31,2.8c2.559.31,4.254-1.814,5-3.019Z" transform="translate(-2073.58 -1075.1)"/></g><g transform="translate(11.692 1.06)"><path class="s" d="M2058.095,1010s6.015,1,6.581-2.754,1.724-6.156-2.092-6.954-4.78.523-5.274,1.73S2056.546,1009.646,2058.095,1010Z" transform="translate(-2056.923 -1000.053)"/></g><g transform="translate(14.632 58.131)"><path class="s" d="M2082.643,1500.9c-.033,1.4.9,9.018.983,28.266,0,.386.36.689,1.492.4,1.57-.4,1.747-.117,1.747-.117a241.7,241.7,0,0,0,2.771-24.426C2089.972,1498.883,2082.715,1497.841,2082.643,1500.9Z" transform="translate(-2082.642 -1499.236)"/></g><g transform="translate(8.501 77.814)"><path class="s" d="M2039.951,1685.886c-.056,1.263-1.335,1.019-3.361.844s-1.276.2-4.1.322-3.3-.341-3.453-.741c-.133-.354.438-.607,1.884-1.005.182-.049,4.007-1.624,4.819-2.642,1.093-1.372.989-11.274.989-11.274l2.889,3.79s-.114,4.517-.246,6.735c-.054.909.666,1.98.844,2.765C2040.312,1685.109,2039.971,1685.441,2039.951,1685.886Z" transform="translate(-2029.017 -1671.39)"/></g><g transform="translate(7.729 91.107)"><path class="ab" d="M2030.544,1790.12c-2.025-.175-1.474.32-4.3.441s-3.827-.784-3.975-1.183c-.133-.354,1.22-.7,2.666-1.093l.018.026a7.922,7.922,0,0,0,4.168.622c1.891-.246,3.8-1.094,5.108-1.274a4.927,4.927,0,0,1,.172,1.308C2034.348,1790.23,2032.57,1790.3,2030.544,1790.12Z" transform="translate(-2022.261 -1787.66)"/></g><g transform="translate(0.951 77.689)"><path class="s" d="M1973.9,1684.709c-.024,1.264-1.309,1.053-3.339.928s-1.27.233-4.092.426-3.312-.257-3.47-.653c-.142-.351.422-.618,1.858-1.052.181-.054,3.965-1.725,4.75-2.763,1.058-1.4.7-11.3.7-11.3l2.984,3.716s0,4.518-.075,6.74c-.031.91.715,1.963.915,2.742C1974.237,1683.922,1973.905,1684.264,1973.9,1684.709Z" transform="translate(-1962.975 -1670.3)"/></g><g transform="translate(0.182 90.888)"><path class="ac" d="M1964.55,1788.294c-2.029-.124-1.466.358-4.286.551s-3.845-.686-4-1.083c-.142-.351,1.2-.727,2.638-1.16l.018.025a7.918,7.918,0,0,0,4.183.516c1.884-.294,3.775-1.19,5.074-1.4a4.966,4.966,0,0,1,.2,1.3C1968.355,1788.308,1966.58,1788.419,1964.55,1788.294Z" transform="translate(-1956.25 -1785.74)"/></g><g transform="translate(7.54 22.219)"><path class="ad" d="M2024.933,1199.507a15.339,15.339,0,0,1-1.346-6.079c.251-3.55,1.174-8.771-.059-8.269-2.761,1.124-2.918,13.454-2.918,13.454Z" transform="translate(-2020.61 -1185.125)"/></g><g transform="translate(0.617 35.478)"><path class="ae" d="M1966.983,1301.328s-3.323,19.045-4.629,30.007-2.293,15.2-2.293,15.2,8.407,1.841,14.925,1.144,7.449,1.778,12.328-1.012a57.544,57.544,0,0,1-2.96-21.775c1.252-16.222-4.841-23.8-4.841-23.8S1977.076,1302.248,1966.983,1301.328Z" transform="translate(-1960.06 -1301.1)"/></g><g transform="translate(15.367 29.29)"><path class="ad" d="M2089.8,1252.28a.227.227,0,0,1-.209-.141,8.263,8.263,0,0,1-.228-5.009.226.226,0,0,1,.434.127,7.946,7.946,0,0,0,.211,4.71.227.227,0,0,1-.124.295A.2.2,0,0,1,2089.8,1252.28Z" transform="translate(-2089.071 -1246.968)"/></g><g transform="translate(0 46.882)"><path class="s" d="M1956.718,1401.236c-.3.9-2.058,2.159-2.058,3.162s.539,3.635.888,3.639c1.309.02.894-1.858,1.4-2.46s1.556-.954,1.606-1.455.226-2.988.226-2.988S1956.994,1400.408,1956.718,1401.236Z" transform="translate(-1954.66 -1400.84)"/></g><g transform="translate(2.63 50.165)"><path class="s" d="M1978.923,1429.56a22.859,22.859,0,0,1-1.243,2.36c-.038-.151,0-1.581,0-1.581Z" transform="translate(-1977.664 -1429.56)"/></g><g transform="translate(8.483 34.376)"><path class="q" d="M2040.445,1292.562s-1.568,2.21-11.585.29v-1.092s8.759,1.331,11.644-.3Z" transform="translate(-2028.86 -1291.46)"/></g><g transform="translate(1.882 14.748)"><path class="s" d="M1980.76,1119.78s-3.539.926-4.57,3.99c-.951,2.825-.968,13.266-1.775,15.2-.64,1.533-3.3,13.7-3.3,13.7l2.234-.455s4.707-10.994,5.384-13.329.189-7.831,1.243-9.79S1980.76,1119.78,1980.76,1119.78Z" transform="translate(-1971.12 -1119.78)"/></g><g transform="translate(21.924 23.358)"><path class="ad" d="M2147.507,1204.472c-.144-1.2-1.087-6.345-1.087-6.345s.842-3.089,1.345-3.041S2148.054,1203.87,2147.507,1204.472Z" transform="translate(-2146.42 -1195.085)"/></g><g transform="translate(9.262)"><path class="af" d="M2040.651,991.35s-2.37.226-3.2,1.732-.031,3.087,2.281,4.443,2.229,4.651.384,5.074-5.319,2.254-4.246,3.882,4.6.566,3.863,2.893c-1.4,4.418,4.948,5.9,7.432,4.772s2.849-4.246,4.819-4.22c3.615.05,2.489-5.561.226-8.146-3.065-3.5-.075-4.9-2.345-7.643C2047.727,991.55,2044.526,989.844,2040.651,991.35Z" transform="translate(-2035.669 -990.786)"/></g></g><g transform="translate(0 189.289)"><path class="r" d="M577.15,1808.331H294.679a.36.36,0,0,1-.359-.359v-.223a.36.36,0,0,1,.359-.359H577.15a.36.36,0,0,1,.359.359v.223A.361.361,0,0,1,577.15,1808.331Z" transform="translate(-294.32 -1807.39)"/></g></svg>