<svg xmlns="http://www.w3.org/2000/svg" width="28" height="28" viewBox="0 0 28 28"><defs><style>.a{fill:#fff;}</style></defs><path class="a" d="M223.116,343.22a1.468,1.468,0,0,0,0,2.936,1.468,1.468,0,1,0,0-2.936Z" transform="translate(-209.545 -324.45)"/><path class="a" d="M187.777,140c-2.573,0-3.755,1.525-3.755,2.554a1.093,1.093,0,0,0,1.144,1.087c1.029,0,.61-1.468,2.554-1.468.953,0,1.716.419,1.716,1.3,0,1.029-1.067,1.62-1.7,2.154a3.49,3.49,0,0,0-1.277,2.9c0,.991.267,1.277,1.048,1.277.934,0,1.125-.419,1.125-.782a2.394,2.394,0,0,1,1.068-2.383c.515-.4,2.135-1.7,2.135-3.488S190.217,140,187.777,140Z" transform="translate(-173.958 -132.346)"/><path class="a" d="M14,0A13.992,13.992,0,0,0,0,14V26.906A1.094,1.094,0,0,0,1.094,28H14A14,14,0,0,0,14,0Zm0,25.813H2.188V14A11.813,11.813,0,1,1,14,25.813Z"/></svg>