<svg xmlns="http://www.w3.org/2000/svg" width="26" height="26" viewBox="0 0 26 26"><defs><style>.a{fill:#e3f1ff;}.b{fill:#0080ff;}.b,.c,.e,.f{fill-rule:evenodd;}.c{fill:#03519e;}.d{fill:#ee8c3c;}.e{fill:#fecba1;}.f{fill:#263a5b;}</style></defs><circle class="a" cx="13" cy="13" r="13"/><path class="b" d="M25.438,39.7A6.976,6.976,0,0,0,18.219,33,6.976,6.976,0,0,0,11,39.7s2.278,2.063,7.219,2.063S25.438,39.7,25.438,39.7Z" transform="translate(-5.328 -15.983)"/><path class="c" d="M25.188,33.514c0,1.709-1.385,2.578-3.094,2.578S19,35.223,19,33.514A8.4,8.4,0,0,1,22.094,33a8.4,8.4,0,0,1,3.094.516Z" transform="translate(-9.203 -15.981)"/><rect class="d" width="4" height="5" rx="2" transform="translate(11 14)"/><path class="e" d="M20.612,8.25c2.869,0,5.2,2.742,5.2,6.123s-2.326,6.123-5.2,6.123-5.2-2.742-5.2-6.123S17.743,8.25,20.612,8.25Z" transform="translate(-7.467 -3.996)"/><path class="f" d="M14.981,14.606l1.466-2.449,5.672-2.063,2.063,2.063,1.324,3.223S27.372,7,20.31,7,14.981,14.606,14.981,14.606Z" transform="translate(-7.165 -3.39)"/></svg>