<svg xmlns="http://www.w3.org/2000/svg" width="26.329" height="33.56" viewBox="0 0 26.329 33.56"><defs><style>.a{fill:#fff;}</style></defs><g transform="translate(0)"><path class="a" d="M132.9,83.926H113.23A1.15,1.15,0,0,1,112,82.877V73.439c0-5.2,4.965-9.439,11.067-9.439s11.067,4.234,11.067,9.439v9.439A1.15,1.15,0,0,1,132.9,83.926Zm-18.445-2.1h17.215v-8.39c0-4.048-3.861-7.341-8.608-7.341s-8.608,3.293-8.608,7.341Z" transform="translate(-109.903 -59.805)"/><path class="a" d="M102.739,342.292H83.59a3.174,3.174,0,1,1,0-6.292h19.148a3.174,3.174,0,1,1,0,6.292ZM83.59,338.1a1.058,1.058,0,1,0,0,2.1h19.148a1.058,1.058,0,1,0,0-2.1Z" transform="translate(-80 -313.976)"/><path class="a" d="M241.049,6.292A1.049,1.049,0,0,1,240,5.244V2.622a2.622,2.622,0,0,1,5.244,0,1.049,1.049,0,0,1-2.1,0,.524.524,0,1,0-1.049,0V5.244A1.049,1.049,0,0,1,241.049,6.292Z" transform="translate(-227.597)"/><path class="a" d="M196.2,407.341a4.195,4.195,0,0,1-3.126-6.992,1.049,1.049,0,0,1,.781-.349h4.689a1.049,1.049,0,0,1,.781.349,4.195,4.195,0,0,1-3.125,6.992Zm-1.817-5.244a2.1,2.1,0,1,0,3.633,0Z" transform="translate(-183.03 -373.782)"/></g></svg>