<svg xmlns="http://www.w3.org/2000/svg" width="37.184" height="32.5" viewBox="0 0 37.184 32.5"><defs><style>.a{fill:#aeb8c5;}</style></defs><g transform="translate(0 -32.247)"><g transform="translate(0 52.261)"><g transform="translate(0 0)"><path class="a" d="M32.774,317.205H6.243a3.121,3.121,0,0,1,0-6.243H9.364a1.561,1.561,0,1,0,0-3.121H6.243a6.243,6.243,0,1,0,0,12.485H32.774a1.561,1.561,0,0,0,0-3.121Z" transform="translate(0 -307.841)"/></g></g><g transform="translate(14.046 32.247)"><path class="a" d="M214.8,33.992a5.988,5.988,0,0,0-8.451,0l-2.388,2.388c-.03.025-.066.034-.094.062s-.037.064-.062.094L195.8,44.544a8.133,8.133,0,0,0-2.391,5.782v3.5a1.561,1.561,0,0,0,1.561,1.561h3.5a8.141,8.141,0,0,0,5.785-2.393L214.8,42.44A5.986,5.986,0,0,0,214.8,33.992Zm-12.757,16.79a5.04,5.04,0,0,1-3.58,1.48h-1.935V50.326a5.039,5.039,0,0,1,1.478-3.579l6.981-6.981,4.036,4.036ZM212.6,40.233,211.233,41.6,207.2,37.56l1.361-1.361a2.854,2.854,0,0,1,4.037,4.034Z" transform="translate(-193.41 -32.247)"/></g></g></svg>