<svg xmlns="http://www.w3.org/2000/svg" width="27.5" height="27.5" viewBox="0 0 27.5 27.5"><defs><style>.a{fill:#fff;stroke:#fff;stroke-width:0.5px;}</style></defs><g transform="translate(0.25 0.25)"><path class="a" d="M374.57,0h-3.779a.791.791,0,0,0,0,1.582h3.779a1.338,1.338,0,0,1,1.336,1.336V6.7a.791.791,0,1,0,1.582,0V2.918A2.922,2.922,0,0,0,374.57,0Z" transform="translate(-350.488)"/><path class="a" d="M.791,7.488A.791.791,0,0,0,1.582,6.7V2.918A1.338,1.338,0,0,1,2.918,1.582H6.7A.791.791,0,1,0,6.7,0H2.918A2.922,2.922,0,0,0,0,2.918V6.7a.791.791,0,0,0,.791.791Z" transform="translate(0 0)"/><path class="a" d="M6.7,375.906H2.918a1.338,1.338,0,0,1-1.336-1.336v-3.779a.791.791,0,0,0-1.582,0v3.779a2.922,2.922,0,0,0,2.918,2.918H6.7a.791.791,0,1,0,0-1.582Z" transform="translate(0 -350.488)"/><path class="a" d="M376.7,370a.791.791,0,0,0-.791.791v3.779a1.338,1.338,0,0,1-1.336,1.336h-3.779a.791.791,0,1,0,0,1.582h3.779a2.922,2.922,0,0,0,2.918-2.918v-3.779A.791.791,0,0,0,376.7,370Z" transform="translate(-350.488 -350.488)"/><path class="a" d="M327.434,81.582h2.509a.622.622,0,0,1,.621.621v2.509a.791.791,0,0,0,1.582,0V82.2a2.206,2.206,0,0,0-2.2-2.2h-2.509a.791.791,0,1,0,0,1.582Z" transform="translate(-309.418 -75.781)"/><path class="a" d="M81,82.2v2.509a.791.791,0,0,0,1.582,0V82.2a.622.622,0,0,1,.621-.621h2.509a.791.791,0,1,0,0-1.582H83.2A2.206,2.206,0,0,0,81,82.2Z" transform="translate(-76.729 -75.781)"/><path class="a" d="M85.712,329.565H83.2a.622.622,0,0,1-.621-.621v-2.509a.791.791,0,0,0-1.582,0v2.509a2.206,2.206,0,0,0,2.2,2.2h2.509a.791.791,0,0,0,0-1.582Z" transform="translate(-76.729 -308.471)"/><path class="a" d="M332.146,328.944v-2.509a.791.791,0,0,0-1.582,0v2.509a.622.622,0,0,1-.621.621h-2.509a.791.791,0,0,0,0,1.582h2.509A2.206,2.206,0,0,0,332.146,328.944Z" transform="translate(-309.418 -308.471)"/><path class="a" d="M1,241.791a.791.791,0,0,0,.791.791H27.1a.791.791,0,1,0,0-1.582H1.791A.791.791,0,0,0,1,241.791Z" transform="translate(-0.947 -228.291)"/></g></svg>