<svg xmlns="http://www.w3.org/2000/svg" width="29" height="28.823" viewBox="0 0 29 28.823"><defs><style>.a{fill:#aeb8c5;}</style></defs><g transform="translate(4.904 26.69)"><rect class="a" width="18.765" height="2.132"/></g><g transform="translate(10.022 9.525)"><path class="a" d="M184.582,169.726h-6.575a1.066,1.066,0,0,0,0,2.132h6.575a1.066,1.066,0,0,0,0-2.132Z" transform="translate(-176.941 -169.726)"/></g><g transform="translate(10.022 14.5)"><path class="a" d="M189.557,257.569h-11.55a1.066,1.066,0,1,0,0,2.132h11.55a1.066,1.066,0,0,0,0-2.132Z" transform="translate(-176.941 -257.569)"/></g><g transform="translate(0 0)"><path class="a" d="M28.372,1.7a1.067,1.067,0,0,0-1.144.173L24.242,4.512,21.253,1.839a1.066,1.066,0,0,0-1.422,0l-2.985,2.67L13.86,1.839a1.065,1.065,0,0,0-1.421,0L9.45,4.512,6.464,1.871a1.066,1.066,0,0,0-1.773.8V21.647H1.066A1.066,1.066,0,0,0,0,22.713v2.594A5.088,5.088,0,0,0,5.082,30.39V28.258a2.953,2.953,0,0,1-2.95-2.95V23.78h16.7v1.528a5.082,5.082,0,1,0,10.164,0V2.669A1.066,1.066,0,0,0,28.372,1.7Zm-1.5,23.611a2.95,2.95,0,1,1-5.9,0V22.713A1.066,1.066,0,0,0,19.9,21.647H6.824V5.036l1.924,1.7a1.066,1.066,0,0,0,1.417,0l2.985-2.67,2.985,2.669a1.066,1.066,0,0,0,1.422,0l2.986-2.67,2.985,2.67a1.066,1.066,0,0,0,1.417,0l1.923-1.7Z" transform="translate(0 -1.568)"/></g></svg>